<svg width="310" height="310" viewBox="0 0 310 310" fill="none" xmlns="http://www.w3.org/2000/svg">
<path d="M310 155C310 240.61 240.611 310 155.001 310C69.3982 310 0 240.61 0 155C0 69.3961 69.3982 0 155.001 0C240.611 0 310 69.3961 310 155Z" fill="#2F65B0"/>
<path d="M155.001 8.56721C74.4526 8.56721 8.92523 74.1706 8.92523 154.815C8.92523 235.467 74.4526 301.064 155.001 301.064C235.552 301.064 301.074 235.467 301.074 154.815C301.074 74.1706 235.552 8.56721 155.001 8.56721ZM155.001 292.078C80.7872 292.078 20.3836 233.031 18.0092 159.304H72.1103L73.2933 150.319H18.0092C20.3836 76.5977 80.7872 17.5447 155.001 17.5447C229.217 17.5447 289.616 76.5977 291.987 150.319H242.884C236.383 150.319 230.664 154.658 228.903 160.911L212.895 217.751C212.021 220.864 210.104 223.317 207.66 224.44C203.151 226.508 198.175 223.511 196.554 217.751L145.857 37.6877C144.952 34.4738 141.602 32.5955 138.382 33.5023C136.363 34.0807 134.772 35.6625 134.2 37.6877L110.911 120.425L110.153 123.104L106.651 135.541L106.23 137.053L105.478 139.722C103.713 145.999 97.9978 150.319 91.4965 150.319H88.517H86.4561C86.4147 150.786 86.3827 151.254 86.3827 151.739C86.3827 152.239 86.4148 152.748 86.466 153.233C86.4701 153.363 86.4841 153.492 86.5022 153.608C86.5575 154.089 86.6175 154.556 86.7148 155.014C86.7381 155.135 86.766 155.24 86.7939 155.361C86.8674 155.689 86.9548 156.022 87.0479 156.346C87.1033 156.54 87.1674 156.753 87.2367 156.952C87.3159 157.198 87.4131 157.46 87.5047 157.697C87.6474 158.057 87.7964 158.399 87.9573 158.759C88.0266 158.898 88.0959 159.048 88.1699 159.198C88.189 159.232 88.2113 159.27 88.2309 159.304H97.8907C104.433 159.304 110.171 154.926 111.9 148.608L113.964 141.064L114.353 139.643L117.365 128.648L118.104 125.952L130.56 80.4137C131.572 76.7286 133.84 73.837 136.718 72.5551C141.949 70.2237 147.664 73.7397 149.488 80.4137L198.892 260.895C199.778 264.126 203.104 266.022 206.33 265.132C208.391 264.576 209.999 262.958 210.556 260.895L235.436 170.013C237.165 163.708 242.906 159.304 249.44 159.304H291.987C289.616 233.031 229.217 292.078 155.001 292.078Z" fill="white"/>
<path d="M152.108 130.314C151.697 131.133 151.203 131.914 150.647 132.641C145.76 139.015 136.644 140.207 130.278 135.319L118.307 126.118L118.103 125.952L117.365 128.648L114.353 139.643C114.421 139.704 114.496 139.76 114.56 139.824C114.56 139.824 114.565 139.828 114.569 139.833C114.948 140.207 115.318 140.596 115.664 141.016C116.011 141.419 116.344 141.849 116.648 142.298C116.949 142.743 117.221 143.182 117.48 143.635C117.489 143.658 117.503 143.672 117.512 143.691C117.757 144.125 117.97 144.57 118.169 145.019C118.187 145.075 118.22 145.12 118.238 145.17C118.423 145.591 118.576 146.022 118.723 146.452C118.751 146.553 118.788 146.633 118.82 146.72C118.94 147.118 119.038 147.525 119.139 147.933C119.167 148.072 119.213 148.205 119.24 148.348C119.318 148.718 119.366 149.107 119.416 149.486C119.443 149.662 119.481 149.833 119.504 150.023C119.546 150.431 119.554 150.842 119.564 151.263C119.568 151.424 119.586 151.573 119.586 151.739C119.586 159.76 113.899 166.46 106.332 168.017C106.147 168.056 105.958 168.078 105.768 168.1C104.863 168.256 103.933 168.351 102.986 168.351C102.478 168.351 101.97 168.323 101.476 168.267C101.347 168.267 101.222 168.256 101.093 168.24C100.63 168.189 100.182 168.117 99.7347 168.034C99.6928 168.028 99.6597 168.017 99.6193 168.017C99.1512 167.917 98.6944 167.783 98.2516 167.656C98.1032 167.611 97.9697 167.572 97.8311 167.528C97.4617 167.394 97.1007 167.267 96.7494 167.117C96.6481 167.083 96.5565 167.055 96.4634 167.016C96.0661 166.844 95.673 166.649 95.2897 166.454C95.1272 166.371 94.9705 166.266 94.8138 166.182C94.55 166.037 94.3011 165.887 94.0472 165.72C93.8387 165.582 93.6307 165.454 93.428 165.315C93.1698 165.131 92.9153 164.937 92.6613 164.742C92.4808 164.586 92.3003 164.425 92.1254 164.28C91.963 164.142 91.8104 164.008 91.6589 163.852C91.3397 163.558 91.0298 163.252 90.7438 162.918C90.6331 162.807 90.512 162.69 90.4065 162.551C90.2218 162.345 90.0511 162.134 89.8747 161.901C89.7832 161.784 89.6999 161.673 89.6125 161.55C89.2695 161.078 88.9514 160.588 88.6596 160.099C88.6322 160.06 88.6043 160.004 88.5821 159.966C88.5722 159.96 88.5722 159.96 88.5681 159.96C88.4517 159.732 88.3405 159.526 88.2308 159.304C88.2112 159.27 88.1889 159.232 88.1698 159.198C88.0958 159.048 88.0265 158.898 87.9572 158.759C87.7963 158.399 87.6473 158.057 87.5046 157.697C87.413 157.46 87.3158 157.198 87.2366 156.952C87.1673 156.753 87.1031 156.54 87.0478 156.346C86.9547 156.022 86.8673 155.689 86.7938 155.361C86.7659 155.24 86.7379 155.135 86.7147 155.014C86.6174 154.556 86.5574 154.089 86.5021 153.608C86.484 153.492 86.47 153.362 86.4659 153.233C86.4146 152.748 86.3826 152.239 86.3826 151.739C86.3826 151.254 86.4146 150.786 86.456 150.319C86.4658 150.226 86.4659 150.129 86.47 150.041C86.47 150.037 86.47 150.037 86.47 150.037C86.4741 149.982 86.4881 149.926 86.4979 149.866C86.5476 149.379 86.6174 148.908 86.7147 148.441C86.7519 148.242 86.8114 148.052 86.8492 147.867C86.9366 147.535 87.0059 147.211 87.1031 146.891C87.1673 146.675 87.2506 146.475 87.3199 146.257C87.427 145.975 87.5144 145.684 87.6339 145.403C87.7265 145.184 87.832 144.981 87.9251 144.772C88.0461 144.505 88.1698 144.242 88.3043 143.991C88.4098 143.779 88.5308 143.58 88.6498 143.372C88.7947 143.126 88.9416 142.881 89.09 142.65C89.2235 142.447 89.3621 142.256 89.5013 142.062C89.6621 141.837 89.8287 141.609 89.9999 141.392C90.1525 141.203 90.3051 141.022 90.4619 140.846C90.6424 140.638 90.8312 140.43 91.02 140.227C91.1871 140.054 91.3537 139.893 91.5244 139.722C91.7271 139.532 91.931 139.343 92.1477 139.162C92.3282 139.005 92.5031 138.852 92.6893 138.695C92.9153 138.534 93.1362 138.367 93.3685 138.2C93.5573 138.061 93.7513 137.928 93.9499 137.803C94.1863 137.645 94.4346 137.493 94.6746 137.349C94.8831 137.238 95.0817 137.123 95.2897 137.008C95.5483 136.877 95.8121 136.753 96.0744 136.638C96.2885 136.535 96.4908 136.437 96.7034 136.35C96.9853 136.235 97.2672 136.137 97.5533 136.04C97.7659 135.966 97.9739 135.887 98.1906 135.817C98.4958 135.73 98.8098 135.656 99.1196 135.582C99.3276 135.531 99.5262 135.475 99.7347 135.434C100.09 135.36 100.445 135.319 100.806 135.263C100.981 135.245 101.158 135.207 101.342 135.193C101.882 135.133 102.432 135.111 102.986 135.111C103.514 135.111 104.022 135.133 104.535 135.185C105.025 135.231 105.5 135.305 105.972 135.388C105.99 135.392 105.999 135.392 106.018 135.392V135.398C106.234 135.434 106.438 135.489 106.651 135.541L110.153 123.103L110.911 120.424L110.351 120.003L85.6242 100.989C75.3355 104.517 66.3684 111.095 59.9091 119.846C60.8241 119.795 61.7392 119.828 62.6486 119.948C70.5992 121.003 76.1993 128.306 75.1467 136.272L73.3346 150.041L73.2932 150.319L72.1102 159.304L72.0223 159.966L67.7821 192.15C75.9728 199.312 86.1508 203.799 96.9532 205.022C96.4494 204.261 96.0206 203.449 95.6688 202.598C92.5962 195.169 96.1297 186.673 103.536 183.592L155.559 162.051C157.647 151.365 156.45 140.287 152.108 130.314Z" fill="#B3B3B3"/>
</svg>
